solid camera mount
facet normal -1.29246385762424e-16 2.73855065824117e-15 -1.0
outer loop
vertex 0.0 3.60000000000004 1.15618625784464e-13
vertex 5.5 0.100000000000039 9.94038185098134e-14
vertex 0.0 -13.4 6.34492458573277e-14
endloop
endfacet
facet normal -1.29246385762424e-16 2.73855065824117e-15 -1.0
outer loop
vertex 5.5 0.100000000000039 9.94038185098134e-14
vertex 0.0 3.60000000000004 1.15618625784464e-13
vertex 18.0 3.60000000000004 1.15618625784464e-13
endloop
endfacet
facet normal -1.29246385762424e-16 2.73855065824117e-15 -1.0
outer loop
vertex 5.5 0.100000000000039 9.94038185098134e-14
vertex 18.0 3.60000000000004 1.15618625784464e-13
vertex 12.5 0.100000000000036 9.94038185098134e-14
endloop
endfacet
facet normal -1.29246385762424e-16 2.73855065824117e-15 -1.0
outer loop
vertex 12.5 0.100000000000036 9.94038185098134e-14
vertex 18.0 3.60000000000004 1.15618625784464e-13
vertex 12.5 -9.62222222222218 7.04991620636974e-14
endloop
endfacet
facet normal -1.29246385762424e-16 2.73855065824117e-15 -1.0
outer loop
vertex 0.0 -13.4 6.34492458573277e-14
vertex 5.5 -9.62222222222218 7.04991620636974e-14
vertex 49.0 -13.4 5.92192961335058e-14
endloop
endfacet
facet normal -1.29246385762424e-16 2.73855065824117e-15 -1.0
outer loop
vertex 5.5 -9.62222222222218 7.04991620636974e-14
vertex 0.0 -13.4 6.34492458573277e-14
vertex 5.5 0.100000000000039 9.94038185098134e-14
endloop
endfacet
facet normal -1.29246385762424e-16 2.73855065824117e-15 -1.0
outer loop
vertex 49.0 -13.4 5.92192961335058e-14
vertex 5.5 -9.62222222222218 7.04991620636974e-14
vertex 12.5 -9.62222222222218 7.04991620636974e-14
endloop
endfacet
facet normal -1.29246385762424e-16 2.73855065824117e-15 -1.0
outer loop
vertex 49.0 -13.4 5.92192961335058e-14
vertex 12.5 -9.62222222222218 7.04991620636974e-14
vertex 22.0 -0.399999999999994 1.02928776612998e-13
endloop
endfacet
facet normal -1.29246385762424e-16 2.73855065824117e-15 -1.0
outer loop
vertex 22.0 -0.399999999999994 1.02928776612998e-13
vertex 12.5 -9.62222222222218 7.04991620636974e-14
vertex 18.0 3.60000000000004 1.15618625784464e-13
endloop
endfacet
facet normal -1.29246385762424e-16 2.73855065824117e-15 -1.0
outer loop
vertex 49.0 -13.4 5.92192961335058e-14
vertex 22.0 -0.399999999999994 1.02928776612998e-13
vertex 49.0 -0.399999999999994 5.92192961335058e-14
endloop
endfacet
facet normal -1.29246385762424e-16 2.73855065824117e-15 -1.0
outer loop
vertex 49.0 -13.4 5.92192961335058e-14
vertex 49.0 -0.399999999999994 5.92192961335058e-14
vertex 50.6823237931664 -0.62148212912105 1.01467044426632e-13
endloop
endfacet
facet normal -1.29246385762424e-16 2.73855065824117e-15 -1.0
outer loop
vertex 49.0 -13.4 5.92192961335058e-14
vertex 50.6823237931664 -0.62148212912105 1.01467044426632e-13
vertex 50.4235047480639 -13.2125920445899 5.85143045128689e-14
endloop
endfacet
facet normal -1.29246385762424e-16 2.73855065824117e-15 -1.0
outer loop
vertex 50.4235047480639 -13.2125920445899 5.85143045128689e-14
vertex 50.6823237931664 -0.62148212912105 1.01467044426632e-13
vertex 50.6823237931664 -13.1785178708789 6.09094849031978e-14
endloop
endfacet
facet normal -1.29246385762424e-16 2.73855065824117e-15 -1.0
outer loop
vertex 50.6823237931664 -13.1785178708789 6.09094849031978e-14
vertex 50.6823237931664 -0.62148212912105 1.01467044426632e-13
vertex 52.25 -1.27083487540114 9.9267136243161e-14
endloop
endfacet
facet normal -1.29246385762424e-16 2.73855065824117e-15 -1.0
outer loop
vertex 50.6823237931664 -13.1785178708789 6.09094849031978e-14
vertex 52.25 -1.27083487540114 9.9267136243161e-14
vertex 52.25 -12.5291651245988 6.29042231634544e-14
endloop
endfacet
facet normal -1.29246385762424e-16 2.73855065824117e-15 -1.0
outer loop
vertex 52.25 -12.5291651245988 6.29042231634544e-14
vertex 52.25 -1.27083487540114 9.9267136243161e-14
vertex 53.5961940777126 -11.4961940777126 6.61524908986158e-14
endloop
endfacet
facet normal -1.29246385762424e-16 2.73855065824117e-15 -1.0
outer loop
vertex 53.5961940777126 -11.4961940777126 6.61524908986158e-14
vertex 52.25 -1.27083487540114 9.9267136243161e-14
vertex 53.5961940777126 -2.30380592228743 9.58426851007683e-14
endloop
endfacet
facet normal -1.29246385762424e-16 2.73855065824117e-15 -1.0
outer loop
vertex 53.5961940777126 -11.4961940777126 6.61524908986158e-14
vertex 53.5961940777126 -2.30380592228743 9.58426851007683e-14
vertex 54.6291651245988 -3.64999999999999 9.14270616856345e-14
endloop
endfacet
facet normal -1.29246385762424e-16 2.73855065824117e-15 -1.0
outer loop
vertex 53.5961940777126 -11.4961940777126 6.61524908986158e-14
vertex 54.6291651245988 -3.64999999999999 9.14270616856345e-14
vertex 54.6291651245988 -10.15 7.04329240305469e-14
endloop
endfacet
facet normal -1.29246385762424e-16 2.73855065824117e-15 -1.0
outer loop
vertex 54.6291651245988 -10.15 7.04329240305469e-14
vertex 54.6291651245988 -3.64999999999999 9.14270616856345e-14
vertex 55.2785178708789 -5.21767620683361 8.63211834363382e-14
endloop
endfacet
facet normal -1.29246385762424e-16 2.73855065824117e-15 -1.0
outer loop
vertex 54.6291651245988 -10.15 7.04329240305469e-14
vertex 55.2785178708789 -5.21767620683361 8.63211834363382e-14
vertex 55.2785178708789 -8.58232379316638 7.54538181150569e-14
endloop
endfacet
facet normal -1.29246385762424e-16 2.73855065824117e-15 -1.0
outer loop
vertex 55.2785178708789 -8.58232379316638 7.54538181150569e-14
vertex 55.2785178708789 -5.21767620683361 8.63211834363382e-14
vertex 55.5 -6.89999999999999 8.08730075177062e-14
endloop
endfacet
facet normal 0.0 1.26206235005183e-16 -1.0
outer loop
vertex -5.8 3.60000000000003 6.41542374779647e-14
vertex -23.8 -13.4 6.20392626160537e-14
vertex -23.8 3.60000000000003 6.41542374779647e-14
endloop
endfacet
facet normal 0.0 1.26206235005183e-16 -1.0
outer loop
vertex -23.8 -13.4 6.20392626160537e-14
vertex -5.8 3.60000000000003 6.41542374779647e-14
vertex -5.8 -13.4 6.20392626160537e-14
endloop
endfacet
facet normal 0.0 2.05554527647511e-16 1.0
outer loop
vertex -20.8 -13.4 1.60000000000006
vertex -23.8 3.60000000000003 1.60000000000006
vertex -23.8 -13.4 1.60000000000006
endloop
endfacet
facet normal 0.0 2.05554527647511e-16 1.0
outer loop
vertex -23.8 3.60000000000003 1.60000000000006
vertex -20.8 -13.4 1.60000000000006
vertex -20.8 3.60000000000003 1.60000000000006
endloop
endfacet
facet normal 0.0 -1.0 -4.57966997657877e-16
outer loop
vertex -8.80000000000001 -13.4 3.60000000000006
vertex -20.8 -13.4 1.60000000000006
vertex -8.80000000000001 -13.4 1.60000000000006
endloop
endfacet
facet normal 0.0 -1.0 -4.57966997657877e-16
outer loop
vertex -20.8 -13.4 1.60000000000006
vertex -8.80000000000001 -13.4 3.60000000000006
vertex -20.8 -13.4 3.60000000000006
endloop
endfacet
facet normal 0.0 -1.0 -4.57966997657877e-16
outer loop
vertex -5.8 -13.4 1.60000000000006
vertex -23.8 -13.4 6.20392626160537e-14
vertex -5.8 -13.4 6.20392626160537e-14
endloop
endfacet
facet normal 0.0 -1.0 -4.57966997657877e-16
outer loop
vertex -23.8 -13.4 6.20392626160537e-14
vertex -5.8 -13.4 1.60000000000006
vertex -23.8 -13.4 1.60000000000006
endloop
endfacet
facet normal 0.0 -1.0 -4.57966997657877e-16
outer loop
vertex -23.8 -13.4 1.60000000000006
vertex -5.8 -13.4 1.60000000000006
vertex -8.80000000000001 -13.4 1.60000000000006
endloop
endfacet
facet normal 0.0 -1.0 -4.57966997657877e-16
outer loop
vertex -23.8 -13.4 1.60000000000006
vertex -8.80000000000001 -13.4 1.60000000000006
vertex -20.8 -13.4 1.60000000000006
endloop
endfacet
facet normal 0.0 1.0 3.0032239343608e-15
outer loop
vertex 5.5 -9.6222222222222 4.50000000000007
vertex 12.5 -9.62222222222218 7.04991620636974e-14
vertex 5.5 -9.62222222222218 7.04991620636974e-14
endloop
endfacet
facet normal 0.0 1.0 3.0032239343608e-15
outer loop
vertex 12.5 -9.62222222222218 7.04991620636974e-14
vertex 5.5 -9.6222222222222 4.50000000000007
vertex 12.5 -9.6222222222222 4.50000000000007
endloop
endfacet
facet normal 0.0 1.0 4.57966997657877e-16
outer loop
vertex -18.3 -0.177777777777763 8.10000000000006
vertex -11.3 -0.17777777777776 3.60000000000005
vertex -18.3 -0.17777777777776 3.60000000000005
endloop
endfacet
facet normal 0.0 1.0 4.57966997657877e-16
outer loop
vertex -11.3 -0.17777777777776 3.60000000000005
vertex -18.3 -0.177777777777763 8.10000000000006
vertex -11.3 -0.177777777777763 8.10000000000006
endloop
endfacet
facet normal -1.0 0.0 0.0
outer loop
vertex -23.8 3.60000000000003 1.60000000000006
vertex -23.8 -13.4 6.20392626160537e-14
vertex -23.8 -13.4 1.60000000000006
endloop
endfacet
facet normal -1.0 0.0 0.0
outer loop
vertex -23.8 -13.4 6.20392626160537e-14
vertex -23.8 3.60000000000003 1.60000000000006
vertex -23.8 3.60000000000003 6.41542374779647e-14
endloop
endfacet
facet normal 0.0 7.02247783733259e-16 1.0
outer loop
vertex -11.3 -9.89999999999997 8.10000000000006
vertex -18.3 -0.177777777777763 8.10000000000006
vertex -18.3 -9.89999999999997 8.10000000000006
endloop
endfacet
facet normal 0.0 7.02247783733259e-16 1.0
outer loop
vertex -18.3 -0.177777777777763 8.10000000000006
vertex -11.3 -9.89999999999997 8.10000000000006
vertex -11.3 -0.177777777777763 8.10000000000006
endloop
endfacet
facet normal 1.0 1.82000291618233e-30 2.50663687337591e-15
outer loop
vertex -11.3 -9.89999999999997 3.60000000000006
vertex -11.3 -0.177777777777763 8.10000000000006
vertex -11.3 -9.89999999999997 8.10000000000006
endloop
endfacet
facet normal 1.0 1.82000291618233e-30 2.50663687337591e-15
outer loop
vertex -11.3 -0.177777777777763 8.10000000000006
vertex -11.3 -9.89999999999997 3.60000000000006
vertex -11.3 -0.17777777777776 3.60000000000005
endloop
endfacet
facet normal 0.0 1.0 4.57966997657877e-16
outer loop
vertex -20.8 3.60000000000003 3.60000000000006
vertex -8.80000000000001 3.60000000000003 1.60000000000006
vertex -20.8 3.60000000000003 1.60000000000006
endloop
endfacet
facet normal 0.0 1.0 4.57966997657877e-16
outer loop
vertex -8.80000000000001 3.60000000000003 1.60000000000006
vertex -20.8 3.60000000000003 3.60000000000006
vertex -8.80000000000001 3.60000000000003 3.60000000000005
endloop
endfacet
facet normal 0.0 1.0 4.57966997657877e-16
outer loop
vertex -23.8 3.60000000000003 1.60000000000006
vertex -5.8 3.60000000000003 6.41542374779647e-14
vertex -23.8 3.60000000000003 6.41542374779647e-14
endloop
endfacet
facet normal 0.0 1.0 4.57966997657877e-16
outer loop
vertex -5.8 3.60000000000003 6.41542374779647e-14
vertex -23.8 3.60000000000003 1.60000000000006
vertex -5.8 3.60000000000003 1.60000000000006
endloop
endfacet
facet normal 0.0 1.0 4.57966997657877e-16
outer loop
vertex -5.8 3.60000000000003 1.60000000000006
vertex -23.8 3.60000000000003 1.60000000000006
vertex -20.8 3.60000000000003 1.60000000000006
endloop
endfacet
facet normal 0.0 1.0 4.57966997657877e-16
outer loop
vertex -5.8 3.60000000000003 1.60000000000006
vertex -20.8 3.60000000000003 1.60000000000006
vertex -8.80000000000001 3.60000000000003 1.60000000000006
endloop
endfacet
facet normal 1.0 1.48409815953661e-31 -4.89096555764665e-17
outer loop
vertex 5.5 -9.62222222222218 7.04991620636974e-14
vertex 5.5 0.100000000000028 4.5000000000001
vertex 5.5 -9.6222222222222 4.50000000000007
endloop
endfacet
facet normal 1.0 1.48409815953661e-31 -4.89096555764665e-17
outer loop
vertex 5.5 0.100000000000028 4.5000000000001
vertex 5.5 -9.62222222222218 7.04991620636974e-14
vertex 5.5 0.100000000000039 9.94038185098134e-14
endloop
endfacet
facet normal 4.69994413757983e-16 -1.26206235005183e-16 1.0
outer loop
vertex -20.8 -13.4 3.60000000000006
vertex -18.3 -9.89999999999998 3.60000000000006
vertex -20.8 3.60000000000003 3.60000000000006
endloop
endfacet
facet normal 4.69994413757983e-16 -1.26206235005183e-16 1.0
outer loop
vertex -18.3 -9.89999999999998 3.60000000000006
vertex -20.8 -13.4 3.60000000000006
vertex -8.80000000000001 -13.4 3.60000000000006
endloop
endfacet
facet normal 4.69994413757983e-16 -1.26206235005183e-16 1.0
outer loop
vertex -18.3 -9.89999999999998 3.60000000000006
vertex -8.80000000000001 -13.4 3.60000000000006
vertex -11.3 -9.89999999999997 3.60000000000006
endloop
endfacet
facet normal 4.69994413757983e-16 -1.26206235005183e-16 1.0
outer loop
vertex -11.3 -9.89999999999997 3.60000000000006
vertex -8.80000000000001 -13.4 3.60000000000006
vertex -11.3 -0.17777777777776 3.60000000000005
endloop
endfacet
facet normal 4.69994413757983e-16 -1.26206235005183e-16 1.0
outer loop
vertex -20.8 3.60000000000003 3.60000000000006
vertex -18.3 -0.17777777777776 3.60000000000005
vertex -8.80000000000001 3.60000000000003 3.60000000000005
endloop
endfacet
facet normal 4.69994413757983e-16 -1.26206235005183e-16 1.0
outer loop
vertex -18.3 -0.17777777777776 3.60000000000005
vertex -20.8 3.60000000000003 3.60000000000006
vertex -18.3 -9.89999999999998 3.60000000000006
endloop
endfacet
facet normal 4.69994413757983e-16 -1.26206235005183e-16 1.0
outer loop
vertex -8.80000000000001 3.60000000000003 3.60000000000005
vertex -18.3 -0.17777777777776 3.60000000000005
vertex -11.3 -0.17777777777776 3.60000000000005
endloop
endfacet
facet normal 4.69994413757983e-16 -1.26206235005183e-16 1.0
outer loop
vertex -8.80000000000001 3.60000000000003 3.60000000000005
vertex -11.3 -0.17777777777776 3.60000000000005
vertex -8.80000000000001 -13.4 3.60000000000006
endloop
endfacet
facet normal -1.0 0.0 0.0
outer loop
vertex -18.3 -9.89999999999997 8.10000000000006
vertex -18.3 -0.17777777777776 3.60000000000005
vertex -18.3 -9.89999999999998 3.60000000000006
endloop
endfacet
facet normal -1.0 0.0 0.0
outer loop
vertex -18.3 -0.17777777777776 3.60000000000005
vertex -18.3 -9.89999999999997 8.10000000000006
vertex -18.3 -0.177777777777763 8.10000000000006
endloop
endfacet
facet normal 8.05704709299399e-16 -1.0 7.95351439030077e-16
outer loop
vertex -11.3 -9.89999999999997 8.10000000000006
vertex -18.3 -9.89999999999998 3.60000000000006
vertex -11.3 -9.89999999999997 3.60000000000006
endloop
endfacet
facet normal 8.05704709299399e-16 -1.0 7.95351439030077e-16
outer loop
vertex -18.3 -9.89999999999998 3.60000000000006
vertex -11.3 -9.89999999999997 8.10000000000006
vertex -18.3 -9.89999999999997 8.10000000000006
endloop
endfacet
facet normal 1.0 0.0 0.0
outer loop
vertex -8.80000000000001 3.60000000000003 1.60000000000006
vertex -8.80000000000001 -13.4 3.60000000000006
vertex -8.80000000000001 -13.4 1.60000000000006
endloop
endfacet
facet normal 1.0 0.0 0.0
outer loop
vertex -8.80000000000001 -13.4 3.60000000000006
vertex -8.80000000000001 3.60000000000003 1.60000000000006
vertex -8.80000000000001 3.60000000000003 3.60000000000005
endloop
endfacet
facet normal -1.0 0.0 0.0
outer loop
vertex -20.8 3.60000000000003 3.60000000000006
vertex -20.8 -13.4 1.60000000000006
vertex -20.8 -13.4 3.60000000000006
endloop
endfacet
facet normal -1.0 0.0 0.0
outer loop
vertex -20.8 -13.4 1.60000000000006
vertex -20.8 3.60000000000003 3.60000000000006
vertex -20.8 3.60000000000003 1.60000000000006
endloop
endfacet
facet normal 0.0 2.05554527647511e-16 1.0
outer loop
vertex -5.8 -13.4 1.60000000000006
vertex -8.80000000000001 3.60000000000003 1.60000000000006
vertex -8.80000000000001 -13.4 1.60000000000006
endloop
endfacet
facet normal 0.0 2.05554527647511e-16 1.0
outer loop
vertex -8.80000000000001 3.60000000000003 1.60000000000006
vertex -5.8 -13.4 1.60000000000006
vertex -5.8 3.60000000000003 1.60000000000006
endloop
endfacet
facet normal 0.0 1.0 3.46944695195361e-15
outer loop
vertex 0.0 3.60000000000002 4.50000000000012
vertex 18.0 3.60000000000004 1.15618625784464e-13
vertex 0.0 3.60000000000004 1.15618625784464e-13
endloop
endfacet
facet normal 0.0 1.0 3.46944695195361e-15
outer loop
vertex 18.0 3.60000000000004 1.15618625784464e-13
vertex 0.0 3.60000000000002 4.50000000000012
vertex 18.0 3.60000000000002 4.50000000000012
endloop
endfacet
facet normal -1.0 0.0 0.0
outer loop
vertex 0.0 3.60000000000002 4.50000000000012
vertex 0.0 -13.4 6.34492458573277e-14
vertex 0.0 -13.4 4.50000000000006
endloop
endfacet
facet normal -1.0 0.0 0.0
outer loop
vertex 0.0 -13.4 6.34492458573277e-14
vertex 0.0 3.60000000000002 4.50000000000012
vertex 0.0 3.60000000000004 1.15618625784464e-13
endloop
endfacet
facet normal 1.0 0.0 0.0
outer loop
vertex -5.8 3.60000000000003 6.41542374779647e-14
vertex -5.8 -13.4 1.60000000000006
vertex -5.8 -13.4 6.20392626160537e-14
endloop
endfacet
facet normal 1.0 0.0 0.0
outer loop
vertex -5.8 -13.4 1.60000000000006
vertex -5.8 3.60000000000003 6.41542374779647e-14
vertex -5.8 3.60000000000003 1.60000000000006
endloop
endfacet
facet normal -7.71131784468122e-16 -1.0 -1.84631837075273e-15
outer loop
vertex 49.0 -13.4 4.00000000000006
vertex 0.0 -13.4 6.34492458573277e-14
vertex 49.0 -13.4 5.92192961335058e-14
endloop
endfacet
facet normal -7.71131784468122e-16 -1.0 -1.84631837075273e-15
outer loop
vertex 0.0 -13.4 6.34492458573277e-14
vertex 49.0 -13.4 4.00000000000006
vertex 22.0 -13.4 4.00000000000009
endloop
endfacet
facet normal -7.71131784468122e-16 -1.0 -1.84631837075273e-15
outer loop
vertex 0.0 -13.4 6.34492458573277e-14
vertex 22.0 -13.4 4.00000000000009
vertex 0.0 -13.4 4.50000000000006
endloop
endfacet
facet normal -7.71131784468122e-16 -1.0 -1.84631837075273e-15
outer loop
vertex 0.0 -13.4 4.50000000000006
vertex 22.0 -13.4 4.00000000000009
vertex 22.0 -13.4 4.50000000000008
endloop
endfacet
facet normal -2.8199664825479e-16 -1.0 -3.0032239343608e-15
outer loop
vertex 12.5 0.100000000000022 4.5000000000001
vertex 5.5 0.100000000000039 9.94038185098134e-14
vertex 12.5 0.100000000000036 9.94038185098134e-14
endloop
endfacet
facet normal -2.8199664825479e-16 -1.0 -3.0032239343608e-15
outer loop
vertex 5.5 0.100000000000039 9.94038185098134e-14
vertex 12.5 0.100000000000022 4.5000000000001
vertex 5.5 0.100000000000028 4.5000000000001
endloop
endfacet
facet normal -1.0 -1.48409815953661e-31 4.89096555764665e-17
outer loop
vertex 12.5 0.100000000000022 4.5000000000001
vertex 12.5 -9.62222222222218 7.04991620636974e-14
vertex 12.5 -9.6222222222222 4.50000000000007
endloop
endfacet
facet normal -1.0 -1.48409815953661e-31 4.89096555764665e-17
outer loop
vertex 12.5 -9.62222222222218 7.04991620636974e-14
vertex 12.5 0.100000000000022 4.5000000000001
vertex 12.5 0.100000000000036 9.94038185098134e-14
endloop
endfacet
facet normal 0.38268343236509 -0.923879532511287 -3.07780270233757e-15
outer loop
vertex 52.25 -12.5291651245988 6.29042231634544e-14
vertex 50.6823237931664 -13.1785178708789 5.00000000000006
vertex 50.6823237931664 -13.1785178708789 6.09094849031978e-14
endloop
endfacet
facet normal 0.38268343236509 -0.923879532511287 -3.07780270233757e-15
outer loop
vertex 50.6823237931664 -13.1785178708789 5.00000000000006
vertex 52.25 -12.5291651245988 6.29042231634544e-14
vertex 52.25 -12.5291651245989 5.00000000000006
endloop
endfacet
facet normal 0.608761429008719 -0.793353340291236 -2.87339297881929e-15
outer loop
vertex 53.5961940777126 -11.4961940777126 6.61524908986158e-14
vertex 52.25 -12.5291651245989 5.00000000000006
vertex 52.25 -12.5291651245988 6.29042231634544e-14
endloop
endfacet
facet normal 0.608761429008719 -0.793353340291236 -2.87339297881929e-15
outer loop
vertex 52.25 -12.5291651245989 5.00000000000006
vertex 53.5961940777126 -11.4961940777126 6.61524908986158e-14
vertex 53.5961940777126 -11.4961940777126 5.00000000000006
endloop
endfacet
facet normal 0.793353340291235 -0.608761429008721 -2.21806457015496e-15
outer loop
vertex 53.5961940777126 -11.4961940777126 6.61524908986158e-14
vertex 54.6291651245988 -10.15 5.00000000000007
vertex 53.5961940777126 -11.4961940777126 5.00000000000006
endloop
endfacet
facet normal 0.793353340291235 -0.608761429008721 -2.21806457015496e-15
outer loop
vertex 54.6291651245988 -10.15 5.00000000000007
vertex 53.5961940777126 -11.4961940777126 6.61524908986158e-14
vertex 54.6291651245988 -10.15 7.04329240305469e-14
endloop
endfacet
facet normal 0.923879532511288 -0.382683432365088 -1.38445179646825e-15
outer loop
vertex 54.6291651245988 -10.15 7.04329240305469e-14
vertex 55.2785178708789 -8.58232379316639 5.00000000000007
vertex 54.6291651245988 -10.15 5.00000000000007
endloop
endfacet
facet normal 0.923879532511288 -0.382683432365088 -1.38445179646825e-15
outer loop
vertex 55.2785178708789 -8.58232379316639 5.00000000000007
vertex 54.6291651245988 -10.15 7.04329240305469e-14
vertex 55.2785178708789 -8.58232379316638 7.54538181150569e-14
endloop
endfacet
facet normal 0.99144486137381 -0.130526192220053 -4.72576243153547e-16
outer loop
vertex 55.2785178708789 -8.58232379316638 7.54538181150569e-14
vertex 55.5 -6.90000000000001 5.00000000000008
vertex 55.2785178708789 -8.58232379316639 5.00000000000007
endloop
endfacet
facet normal 0.99144486137381 -0.130526192220053 -4.72576243153547e-16
outer loop
vertex 55.5 -6.90000000000001 5.00000000000008
vertex 55.2785178708789 -8.58232379316638 7.54538181150569e-14
vertex 55.5 -6.89999999999999 8.08730075177062e-14
endloop
endfacet
facet normal 0.99144486137381 0.130526192220053 4.79031833548887e-16
outer loop
vertex 55.5 -6.89999999999999 8.08730075177062e-14
vertex 55.2785178708789 -5.21767620683362 5.00000000000008
vertex 55.5 -6.90000000000001 5.00000000000008
endloop
endfacet
facet normal 0.99144486137381 0.130526192220053 4.79031833548887e-16
outer loop
vertex 55.2785178708789 -5.21767620683362 5.00000000000008
vertex 55.5 -6.89999999999999 8.08730075177062e-14
vertex 55.2785178708789 -5.21767620683361 8.63211834363382e-14
endloop
endfacet
facet normal 0.923879532511288 0.382683432365088 1.45486798315795e-15
outer loop
vertex 55.2785178708789 -5.21767620683361 8.63211834363382e-14
vertex 54.6291651245988 -3.65000000000001 5.00000000000009
vertex 55.2785178708789 -5.21767620683362 5.00000000000008
endloop
endfacet
facet normal 0.923879532511288 0.382683432365088 1.45486798315795e-15
outer loop
vertex 54.6291651245988 -3.65000000000001 5.00000000000009
vertex 55.2785178708789 -5.21767620683361 8.63211834363382e-14
vertex 54.6291651245988 -3.64999999999999 9.14270616856345e-14
endloop
endfacet
facet normal 0.793353340291235 0.60876142900872 2.25456332465168e-15
outer loop
vertex 54.6291651245988 -3.64999999999999 9.14270616856345e-14
vertex 53.5961940777126 -2.30380592228745 5.00000000000009
vertex 54.6291651245988 -3.65000000000001 5.00000000000009
endloop
endfacet
facet normal 0.793353340291235 0.60876142900872 2.25456332465168e-15
outer loop
vertex 53.5961940777126 -2.30380592228745 5.00000000000009
vertex 54.6291651245988 -3.64999999999999 9.14270616856345e-14
vertex 53.5961940777126 -2.30380592228743 9.58426851007683e-14
endloop
endfacet
facet normal 0.608761429008722 0.793353340291234 2.7978052567374e-15
outer loop
vertex 52.25 -1.27083487540114 9.9267136243161e-14
vertex 53.5961940777126 -2.30380592228745 5.00000000000009
vertex 53.5961940777126 -2.30380592228743 9.58426851007683e-14
endloop
endfacet
facet normal 0.608761429008722 0.793353340291234 2.7978052567374e-15
outer loop
vertex 53.5961940777126 -2.30380592228745 5.00000000000009
vertex 52.25 -1.27083487540114 9.9267136243161e-14
vertex 52.25 -1.27083487540116 5.0000000000001
endloop
endfacet
facet normal 0.382683432365089 0.923879532511287 3.2723304494355e-15
outer loop
vertex 50.6823237931664 -0.62148212912105 1.01467044426632e-13
vertex 52.25 -1.27083487540116 5.0000000000001
vertex 52.25 -1.27083487540114 9.9267136243161e-14
endloop
endfacet
facet normal 0.382683432365089 0.923879532511287 3.2723304494355e-15
outer loop
vertex 52.25 -1.27083487540116 5.0000000000001
vertex 50.6823237931664 -0.62148212912105 1.01467044426632e-13
vertex 50.6823237931664 -0.621482129121064 5.0000000000001
endloop
endfacet
facet normal 0.130526192220062 0.991444861373809 1.0733848621041e-15
outer loop
vertex 49.0 -0.399999999999976 4.00000000000006
vertex 50.6823237931664 -0.62148212912105 1.01467044426632e-13
vertex 49.0 -0.399999999999994 5.92192961335058e-14
endloop
endfacet
facet normal 0.130526192220062 0.991444861373809 1.0733848621041e-15
outer loop
vertex 50.6823237931664 -0.62148212912105 1.01467044426632e-13
vertex 49.0 -0.399999999999976 4.00000000000006
vertex 50.6823237931664 -0.621482129121064 5.0000000000001
endloop
endfacet
facet normal 0.130526192220062 0.991444861373809 1.0733848621041e-15
outer loop
vertex 50.6823237931664 -0.621482129121064 5.0000000000001
vertex 49.0 -0.399999999999976 4.00000000000006
vertex 49.0 -0.399999999999994 5.0000000000001
endloop
endfacet
facet normal -0.130526192220055 0.99144486137381 2.21345232557072e-14
outer loop
vertex 47.3176762068336 -0.621482129121031 4.00000000000011
vertex 49.0 -0.399999999999994 5.0000000000001
vertex 49.0 -0.399999999999976 4.00000000000006
endloop
endfacet
facet normal -0.130526192220055 0.99144486137381 2.21345232557072e-14
outer loop
vertex 49.0 -0.399999999999994 5.0000000000001
vertex 47.3176762068336 -0.621482129121031 4.00000000000011
vertex 47.3176762068336 -0.621482129121062 5.0000000000001
endloop
endfacet
facet normal -0.382683432365089 0.923879532511287 2.25021294830909e-14
outer loop
vertex 45.75 -1.27083487540115 5.0000000000001
vertex 47.3176762068336 -0.621482129121031 4.00000000000011
vertex 45.75 -1.27083487540112 4.00000000000011
endloop
endfacet
facet normal -0.382683432365089 0.923879532511287 2.25021294830909e-14
outer loop
vertex 47.3176762068336 -0.621482129121031 4.00000000000011
vertex 45.75 -1.27083487540115 5.0000000000001
vertex 47.3176762068336 -0.621482129121062 5.0000000000001
endloop
endfacet
facet normal -0.608761429008722 0.793353340291234 1.45094251830048e-14
outer loop
vertex 44.4038059222874 -2.30380592228745 5.00000000000009
vertex 45.75 -1.27083487540112 4.00000000000011
vertex 44.4038059222875 -2.30380592228741 4.0000000000001
endloop
endfacet
facet normal -0.608761429008722 0.793353340291234 1.45094251830048e-14
outer loop
vertex 45.75 -1.27083487540112 4.00000000000011
vertex 44.4038059222874 -2.30380592228745 5.00000000000009
vertex 45.75 -1.27083487540115 5.0000000000001
endloop
endfacet
facet normal -0.793353340291234 0.608761429008723 5.67275225029478e-15
outer loop
vertex 44.4038059222874 -2.30380592228745 5.00000000000009
vertex 44.3299936103749 -2.39999999999994 4.0000000000001
vertex 44.3299936103749 -2.39999999999997 5.00000000000009
endloop
endfacet
facet normal -0.793353340291234 0.608761429008723 5.67275225029478e-15
outer loop
vertex 44.3299936103749 -2.39999999999994 4.0000000000001
vertex 44.4038059222874 -2.30380592228745 5.00000000000009
vertex 44.4038059222875 -2.30380592228741 4.0000000000001
endloop
endfacet
facet normal -0.793353340291235 0.60876142900872 5.07274889454451e-16
outer loop
vertex 43.3708348754012 -3.65000000000001 5.00000000000009
vertex 44.3299936103749 -2.39999999999994 4.0000000000001
vertex 43.3708348754012 -3.65000000000001 4.0000000000001
endloop
endfacet
facet normal -0.793353340291235 0.60876142900872 5.07274889454451e-16
outer loop
vertex 44.3299936103749 -2.39999999999994 4.0000000000001
vertex 43.3708348754012 -3.65000000000001 5.00000000000009
vertex 44.3299936103749 -2.39999999999997 5.00000000000009
endloop
endfacet
facet normal -0.923879532511288 0.382683432365088 -3.01036323574329e-15
outer loop
vertex 42.7214821291211 -5.21767620683362 5.00000000000008
vertex 43.3708348754012 -3.65000000000001 4.0000000000001
vertex 42.7214821291211 -5.21767620683363 4.00000000000009
endloop
endfacet
facet normal -0.923879532511288 0.382683432365088 -3.01036323574329e-15
outer loop
vertex 43.3708348754012 -3.65000000000001 4.0000000000001
vertex 42.7214821291211 -5.21767620683362 5.00000000000008
vertex 43.3708348754012 -3.65000000000001 5.00000000000009
endloop
endfacet
facet normal -0.99144486137381 0.130526192220053 -1.07064819095259e-15
outer loop
vertex 42.5 -6.90000000000001 5.00000000000008
vertex 42.7214821291211 -5.21767620683363 4.00000000000009
vertex 42.5 -6.90000000000001 4.00000000000008
endloop
endfacet
facet normal -0.99144486137381 0.130526192220053 -1.07064819095259e-15
outer loop
vertex 42.7214821291211 -5.21767620683363 4.00000000000009
vertex 42.5 -6.90000000000001 5.00000000000008
vertex 42.7214821291211 -5.21767620683362 5.00000000000008
endloop
endfacet
facet normal -0.991444861373811 -0.13052619222005 1.09767404381482e-15
outer loop
vertex 42.7214821291211 -8.58232379316639 5.00000000000007
vertex 42.5 -6.90000000000001 4.00000000000008
vertex 42.7214821291211 -8.5823237931664 4.00000000000008
endloop
endfacet
facet normal -0.991444861373811 -0.13052619222005 1.09767404381482e-15
outer loop
vertex 42.5 -6.90000000000001 4.00000000000008
vertex 42.7214821291211 -8.58232379316639 5.00000000000007
vertex 42.5 -6.90000000000001 5.00000000000008
endloop
endfacet
facet normal -0.923879532511286 -0.382683432365091 3.26980994415514e-15
outer loop
vertex 43.3708348754012 -10.15 5.00000000000007
vertex 42.7214821291211 -8.5823237931664 4.00000000000008
vertex 43.3708348754012 -10.15 4.00000000000007
endloop
endfacet
facet normal -0.923879532511286 -0.382683432365091 3.26980994415514e-15
outer loop
vertex 42.7214821291211 -8.5823237931664 4.00000000000008
vertex 43.3708348754012 -10.15 5.00000000000007
vertex 42.7214821291211 -8.58232379316639 5.00000000000007
endloop
endfacet
facet normal -0.793353340291236 -0.608761429008719 5.16092503060107e-15
outer loop
vertex 44.4038059222874 -11.4961940777126 5.00000000000006
vertex 43.3708348754012 -10.15 4.00000000000007
vertex 44.4038059222874 -11.4961940777126 4.00000000000007
endloop
endfacet
facet normal -0.793353340291236 -0.608761429008719 5.16092503060107e-15
outer loop
vertex 43.3708348754012 -10.15 4.00000000000007
vertex 44.4038059222874 -11.4961940777126 5.00000000000006
vertex 43.3708348754012 -10.15 5.00000000000007
endloop
endfacet
facet normal -0.608761429008721 -0.793353340291235 6.70485725275757e-15
outer loop
vertex 45.75 -12.5291651245989 5.00000000000006
vertex 44.4038059222874 -11.4961940777126 4.00000000000007
vertex 45.75 -12.5291651245989 4.00000000000007
endloop
endfacet
facet normal -0.608761429008721 -0.793353340291235 6.70485725275757e-15
outer loop
vertex 44.4038059222874 -11.4961940777126 4.00000000000007
vertex 45.75 -12.5291651245989 5.00000000000006
vertex 44.4038059222874 -11.4961940777126 5.00000000000006
endloop
endfacet
facet normal -0.38268343236509 -0.923879532511287 7.82155543840961e-15
outer loop
vertex 47.3176762068336 -13.1785178708789 5.00000000000006
vertex 45.75 -12.5291651245989 4.00000000000007
vertex 47.3176762068336 -13.178517870879 4.00000000000006
endloop
endfacet
facet normal -0.38268343236509 -0.923879532511287 7.82155543840961e-15
outer loop
vertex 45.75 -12.5291651245989 4.00000000000007
vertex 47.3176762068336 -13.1785178708789 5.00000000000006
vertex 45.75 -12.5291651245989 5.00000000000006
endloop
endfacet
facet normal -0.130526192220051 -0.99144486137381 8.39382363716143e-15
outer loop
vertex 49.0 -13.4 5.00000000000006
vertex 47.3176762068336 -13.178517870879 4.00000000000006
vertex 49.0 -13.4 4.00000000000006
endloop
endfacet
facet normal -0.130526192220051 -0.99144486137381 8.39382363716143e-15
outer loop
vertex 47.3176762068336 -13.178517870879 4.00000000000006
vertex 49.0 -13.4 5.00000000000006
vertex 47.3176762068336 -13.1785178708789 5.00000000000006
endloop
endfacet
facet normal -7.00445999694302e-30 1.0 -4.40619762898109e-15
outer loop
vertex 22.0 -0.399999999999994 1.02928776612998e-13
vertex 49.0 -0.399999999999976 4.00000000000006
vertex 49.0 -0.399999999999994 5.92192961335058e-14
endloop
endfacet
facet normal -7.00445999694302e-30 1.0 -4.40619762898109e-15
outer loop
vertex 49.0 -0.399999999999976 4.00000000000006
vertex 22.0 -0.399999999999994 1.02928776612998e-13
vertex 22.0 -0.399999999999976 4.00000000000011
endloop
endfacet
facet normal 0.130526192220056 -0.99144486137381 -2.53141492470198e-15
outer loop
vertex 50.6823237931664 -13.1785178708789 6.09094849031978e-14
vertex 49.0 -13.4 5.92192961335058e-14
vertex 50.4235047480639 -13.2125920445899 5.85143045128689e-14
endloop
endfacet
facet normal 0.130526192220056 -0.99144486137381 -2.53141492470198e-15
outer loop
vertex 49.0 -13.4 5.92192961335058e-14
vertex 50.6823237931664 -13.1785178708789 6.09094849031978e-14
vertex 49.0 -13.4 4.00000000000006
endloop
endfacet
facet normal 0.130526192220056 -0.99144486137381 -2.53141492470198e-15
outer loop
vertex 49.0 -13.4 4.00000000000006
vertex 50.6823237931664 -13.1785178708789 6.09094849031978e-14
vertex 50.6823237931664 -13.1785178708789 5.00000000000006
endloop
endfacet
facet normal 0.130526192220056 -0.99144486137381 -2.53141492470198e-15
outer loop
vertex 49.0 -13.4 4.00000000000006
vertex 50.6823237931664 -13.1785178708789 5.00000000000006
vertex 50.4235047480639 -13.2125920445899 5.00000000000006
endloop
endfacet
facet normal 0.130526192220056 -0.99144486137381 -2.53141492470198e-15
outer loop
vertex 49.0 -13.4 5.00000000000006
vertex 49.0 -13.4 4.00000000000006
vertex 50.4235047480639 -13.2125920445899 5.00000000000006
endloop
endfacet
facet normal 0.707106781186546 0.707106781186549 1.86391619360165e-17
outer loop
vertex 18.0 3.60000000000004 1.15618625784464e-13
vertex 22.0 -0.399999999999976 4.00000000000011
vertex 22.0 -0.399999999999994 1.02928776612998e-13
endloop
endfacet
facet normal 0.707106781186546 0.707106781186549 1.86391619360165e-17
outer loop
vertex 22.0 -0.399999999999976 4.00000000000011
vertex 18.0 3.60000000000004 1.15618625784464e-13
vertex 18.0 3.60000000000002 4.50000000000012
endloop
endfacet
facet normal 0.707106781186546 0.707106781186549 1.86391619360165e-17
outer loop
vertex 22.0 -0.399999999999976 4.00000000000011
vertex 18.0 3.60000000000002 4.50000000000012
vertex 22.0 -0.399999999999984 4.5000000000001
endloop
endfacet
facet normal -3.85433349605922e-16 -2.4794134235863e-15 1.0
outer loop
vertex 0.0 -13.4 4.50000000000006
vertex 5.5 -9.6222222222222 4.50000000000007
vertex 0.0 3.60000000000002 4.50000000000012
endloop
endfacet
facet normal -3.85433349605922e-16 -2.4794134235863e-15 1.0
outer loop
vertex 5.5 -9.6222222222222 4.50000000000007
vertex 0.0 -13.4 4.50000000000006
vertex 22.0 -13.4 4.50000000000008
endloop
endfacet
facet normal -3.85433349605922e-16 -2.4794134235863e-15 1.0
outer loop
vertex 5.5 -9.6222222222222 4.50000000000007
vertex 22.0 -13.4 4.50000000000008
vertex 12.5 -9.6222222222222 4.50000000000007
endloop
endfacet
facet normal -3.85433349605922e-16 -2.4794134235863e-15 1.0
outer loop
vertex 12.5 -9.6222222222222 4.50000000000007
vertex 22.0 -13.4 4.50000000000008
vertex 12.5 0.100000000000022 4.5000000000001
endloop
endfacet
facet normal -3.85433349605922e-16 -2.4794134235863e-15 1.0
outer loop
vertex 12.5 0.100000000000022 4.5000000000001
vertex 22.0 -13.4 4.50000000000008
vertex 18.0 3.60000000000002 4.50000000000012
endloop
endfacet
facet normal -3.85433349605922e-16 -2.4794134235863e-15 1.0
outer loop
vertex 18.0 3.60000000000002 4.50000000000012
vertex 22.0 -13.4 4.50000000000008
vertex 22.0 -0.399999999999984 4.5000000000001
endloop
endfacet
facet normal -3.85433349605922e-16 -2.4794134235863e-15 1.0
outer loop
vertex 0.0 3.60000000000002 4.50000000000012
vertex 5.5 0.100000000000028 4.5000000000001
vertex 18.0 3.60000000000002 4.50000000000012
endloop
endfacet
facet normal -3.85433349605922e-16 -2.4794134235863e-15 1.0
outer loop
vertex 5.5 0.100000000000028 4.5000000000001
vertex 0.0 3.60000000000002 4.50000000000012
vertex 5.5 -9.6222222222222 4.50000000000007
endloop
endfacet
facet normal -3.85433349605922e-16 -2.4794134235863e-15 1.0
outer loop
vertex 18.0 3.60000000000002 4.50000000000012
vertex 5.5 0.100000000000028 4.5000000000001
vertex 12.5 0.100000000000022 4.5000000000001
endloop
endfacet
facet normal 5.89602641812849e-16 -2.44160903571091e-15 1.0
outer loop
vertex 22.0 -13.4 4.00000000000009
vertex 45.75 -12.5291651245989 4.00000000000007
vertex 22.0 -0.399999999999976 4.00000000000011
endloop
endfacet
facet normal 5.89602641812849e-16 -2.44160903571091e-15 1.0
outer loop
vertex 45.75 -12.5291651245989 4.00000000000007
vertex 22.0 -13.4 4.00000000000009
vertex 47.3176762068336 -13.178517870879 4.00000000000006
endloop
endfacet
facet normal 5.89602641812849e-16 -2.44160903571091e-15 1.0
outer loop
vertex 47.3176762068336 -13.178517870879 4.00000000000006
vertex 22.0 -13.4 4.00000000000009
vertex 49.0 -13.4 4.00000000000006
endloop
endfacet
facet normal 5.89602641812849e-16 -2.44160903571091e-15 1.0
outer loop
vertex 22.0 -0.399999999999976 4.00000000000011
vertex 45.75 -12.5291651245989 4.00000000000007
vertex 44.4038059222874 -11.4961940777126 4.00000000000007
endloop
endfacet
facet normal 5.89602641812849e-16 -2.44160903571091e-15 1.0
outer loop
vertex 22.0 -0.399999999999976 4.00000000000011
vertex 44.4038059222874 -11.4961940777126 4.00000000000007
vertex 43.3708348754012 -10.15 4.00000000000007
endloop
endfacet
facet normal 5.89602641812849e-16 -2.44160903571091e-15 1.0
outer loop
vertex 22.0 -0.399999999999976 4.00000000000011
vertex 43.3708348754012 -10.15 4.00000000000007
vertex 42.7214821291211 -8.5823237931664 4.00000000000008
endloop
endfacet
facet normal 5.89602641812849e-16 -2.44160903571091e-15 1.0
outer loop
vertex 22.0 -0.399999999999976 4.00000000000011
vertex 42.7214821291211 -8.5823237931664 4.00000000000008
vertex 42.5 -6.90000000000001 4.00000000000008
endloop
endfacet
facet normal 5.89602641812849e-16 -2.44160903571091e-15 1.0
outer loop
vertex 22.0 -0.399999999999976 4.00000000000011
vertex 47.3176762068336 -0.621482129121031 4.00000000000011
vertex 49.0 -0.399999999999976 4.00000000000006
endloop
endfacet
facet normal 5.89602641812849e-16 -2.44160903571091e-15 1.0
outer loop
vertex 47.3176762068336 -0.621482129121031 4.00000000000011
vertex 22.0 -0.399999999999976 4.00000000000011
vertex 45.75 -1.27083487540112 4.00000000000011
endloop
endfacet
facet normal 5.89602641812849e-16 -2.44160903571091e-15 1.0
outer loop
vertex 45.75 -1.27083487540112 4.00000000000011
vertex 22.0 -0.399999999999976 4.00000000000011
vertex 44.4038059222875 -2.30380592228741 4.0000000000001
endloop
endfacet
facet normal 5.89602641812849e-16 -2.44160903571091e-15 1.0
outer loop
vertex 44.4038059222875 -2.30380592228741 4.0000000000001
vertex 22.0 -0.399999999999976 4.00000000000011
vertex 44.3299936103749 -2.39999999999994 4.0000000000001
endloop
endfacet
facet normal 5.89602641812849e-16 -2.44160903571091e-15 1.0
outer loop
vertex 44.3299936103749 -2.39999999999994 4.0000000000001
vertex 22.0 -0.399999999999976 4.00000000000011
vertex 43.3708348754012 -3.65000000000001 4.0000000000001
endloop
endfacet
facet normal 5.89602641812849e-16 -2.44160903571091e-15 1.0
outer loop
vertex 43.3708348754012 -3.65000000000001 4.0000000000001
vertex 22.0 -0.399999999999976 4.00000000000011
vertex 42.7214821291211 -5.21767620683363 4.00000000000009
endloop
endfacet
facet normal 5.89602641812849e-16 -2.44160903571091e-15 1.0
outer loop
vertex 42.7214821291211 -5.21767620683363 4.00000000000009
vertex 22.0 -0.399999999999976 4.00000000000011
vertex 42.5 -6.90000000000001 4.00000000000008
endloop
endfacet
facet normal 1.0 -6.507614959726e-16 5.63993296509585e-15
outer loop
vertex 22.0 -0.399999999999976 4.00000000000011
vertex 22.0 -13.4 4.50000000000008
vertex 22.0 -13.4 4.00000000000009
endloop
endfacet
facet normal 1.0 -6.507614959726e-16 5.63993296509585e-15
outer loop
vertex 22.0 -13.4 4.50000000000008
vertex 22.0 -0.399999999999976 4.00000000000011
vertex 22.0 -0.399999999999984 4.5000000000001
endloop
endfacet
facet normal 6.44408282857922e-17 -3.2048212110035e-15 1.0
outer loop
vertex 42.7214821291211 -8.58232379316639 5.00000000000007
vertex 42.7214821291211 -5.21767620683362 5.00000000000008
vertex 42.5 -6.90000000000001 5.00000000000008
endloop
endfacet
facet normal 6.44408282857922e-17 -3.2048212110035e-15 1.0
outer loop
vertex 42.7214821291211 -5.21767620683362 5.00000000000008
vertex 42.7214821291211 -8.58232379316639 5.00000000000007
vertex 43.3708348754012 -10.15 5.00000000000007
endloop
endfacet
facet normal 6.44408282857922e-17 -3.2048212110035e-15 1.0
outer loop
vertex 42.7214821291211 -5.21767620683362 5.00000000000008
vertex 43.3708348754012 -10.15 5.00000000000007
vertex 43.3708348754012 -3.65000000000001 5.00000000000009
endloop
endfacet
facet normal 6.44408282857922e-17 -3.2048212110035e-15 1.0
outer loop
vertex 43.3708348754012 -3.65000000000001 5.00000000000009
vertex 43.3708348754012 -10.15 5.00000000000007
vertex 44.4038059222874 -11.4961940777126 5.00000000000006
endloop
endfacet
facet normal 6.44408282857922e-17 -3.2048212110035e-15 1.0
outer loop
vertex 43.3708348754012 -3.65000000000001 5.00000000000009
vertex 44.4038059222874 -11.4961940777126 5.00000000000006
vertex 44.3299936103749 -2.39999999999997 5.00000000000009
endloop
endfacet
facet normal 6.44408282857922e-17 -3.2048212110035e-15 1.0
outer loop
vertex 44.3299936103749 -2.39999999999997 5.00000000000009
vertex 44.4038059222874 -11.4961940777126 5.00000000000006
vertex 44.4038059222874 -2.30380592228745 5.00000000000009
endloop
endfacet
facet normal 6.44408282857922e-17 -3.2048212110035e-15 1.0
outer loop
vertex 44.4038059222874 -2.30380592228745 5.00000000000009
vertex 44.4038059222874 -11.4961940777126 5.00000000000006
vertex 45.75 -12.5291651245989 5.00000000000006
endloop
endfacet
facet normal 6.44408282857922e-17 -3.2048212110035e-15 1.0
outer loop
vertex 44.4038059222874 -2.30380592228745 5.00000000000009
vertex 45.75 -12.5291651245989 5.00000000000006
vertex 45.75 -1.27083487540115 5.0000000000001
endloop
endfacet
facet normal 6.44408282857922e-17 -3.2048212110035e-15 1.0
outer loop
vertex 45.75 -1.27083487540115 5.0000000000001
vertex 45.75 -12.5291651245989 5.00000000000006
vertex 47.3176762068336 -13.1785178708789 5.00000000000006
endloop
endfacet
facet normal 6.44408282857922e-17 -3.2048212110035e-15 1.0
outer loop
vertex 45.75 -1.27083487540115 5.0000000000001
vertex 47.3176762068336 -13.1785178708789 5.00000000000006
vertex 47.3176762068336 -0.621482129121062 5.0000000000001
endloop
endfacet
facet normal 6.44408282857922e-17 -3.2048212110035e-15 1.0
outer loop
vertex 47.3176762068336 -0.621482129121062 5.0000000000001
vertex 47.3176762068336 -13.1785178708789 5.00000000000006
vertex 49.0 -13.4 5.00000000000006
endloop
endfacet
facet normal 6.44408282857922e-17 -3.2048212110035e-15 1.0
outer loop
vertex 47.3176762068336 -0.621482129121062 5.0000000000001
vertex 49.0 -13.4 5.00000000000006
vertex 49.0 -0.399999999999994 5.0000000000001
endloop
endfacet
facet normal 6.44408282857922e-17 -3.2048212110035e-15 1.0
outer loop
vertex 49.0 -0.399999999999994 5.0000000000001
vertex 49.0 -13.4 5.00000000000006
vertex 50.4235047480639 -13.2125920445899 5.00000000000006
endloop
endfacet
facet normal 6.44408282857922e-17 -3.2048212110035e-15 1.0
outer loop
vertex 49.0 -0.399999999999994 5.0000000000001
vertex 50.4235047480639 -13.2125920445899 5.00000000000006
vertex 50.6823237931664 -0.621482129121064 5.0000000000001
endloop
endfacet
facet normal 6.44408282857922e-17 -3.2048212110035e-15 1.0
outer loop
vertex 50.6823237931664 -0.621482129121064 5.0000000000001
vertex 50.4235047480639 -13.2125920445899 5.00000000000006
vertex 50.6823237931664 -13.1785178708789 5.00000000000006
endloop
endfacet
facet normal 6.44408282857922e-17 -3.2048212110035e-15 1.0
outer loop
vertex 50.6823237931664 -0.621482129121064 5.0000000000001
vertex 50.6823237931664 -13.1785178708789 5.00000000000006
vertex 52.25 -12.5291651245989 5.00000000000006
endloop
endfacet
facet normal 6.44408282857922e-17 -3.2048212110035e-15 1.0
outer loop
vertex 50.6823237931664 -0.621482129121064 5.0000000000001
vertex 52.25 -12.5291651245989 5.00000000000006
vertex 52.25 -1.27083487540116 5.0000000000001
endloop
endfacet
facet normal 6.44408282857922e-17 -3.2048212110035e-15 1.0
outer loop
vertex 52.25 -1.27083487540116 5.0000000000001
vertex 52.25 -12.5291651245989 5.00000000000006
vertex 53.5961940777126 -11.4961940777126 5.00000000000006
endloop
endfacet
facet normal 6.44408282857922e-17 -3.2048212110035e-15 1.0
outer loop
vertex 52.25 -1.27083487540116 5.0000000000001
vertex 53.5961940777126 -11.4961940777126 5.00000000000006
vertex 53.5961940777126 -2.30380592228745 5.00000000000009
endloop
endfacet
facet normal 6.44408282857922e-17 -3.2048212110035e-15 1.0
outer loop
vertex 53.5961940777126 -2.30380592228745 5.00000000000009
vertex 53.5961940777126 -11.4961940777126 5.00000000000006
vertex 54.6291651245988 -10.15 5.00000000000007
endloop
endfacet
facet normal 6.44408282857922e-17 -3.2048212110035e-15 1.0
outer loop
vertex 53.5961940777126 -2.30380592228745 5.00000000000009
vertex 54.6291651245988 -10.15 5.00000000000007
vertex 54.6291651245988 -3.65000000000001 5.00000000000009
endloop
endfacet
facet normal 6.44408282857922e-17 -3.2048212110035e-15 1.0
outer loop
vertex 54.6291651245988 -3.65000000000001 5.00000000000009
vertex 54.6291651245988 -10.15 5.00000000000007
vertex 55.2785178708789 -8.58232379316639 5.00000000000007
endloop
endfacet
facet normal 6.44408282857922e-17 -3.2048212110035e-15 1.0
outer loop
vertex 54.6291651245988 -3.65000000000001 5.00000000000009
vertex 55.2785178708789 -8.58232379316639 5.00000000000007
vertex 55.2785178708789 -5.21767620683362 5.00000000000008
endloop
endfacet
facet normal 6.44408282857922e-17 -3.2048212110035e-15 1.0
outer loop
vertex 55.2785178708789 -5.21767620683362 5.00000000000008
vertex 55.2785178708789 -8.58232379316639 5.00000000000007
vertex 55.5 -6.90000000000001 5.00000000000008
endloop
endfacet
endsolid camera mount
